<mxfile modified="2023-11-23T07:31:58.816Z" host="app.diagrams.net" agent="Mozilla/5.0 (Macintosh; Intel Mac OS X 10_15_7) AppleWebKit/537.36 (KHTML, like Gecko) Chrome/119.0.0.0 Safari/537.36" etag="6xAvOCoxIhNUplDJDbA1" version="22.1.3" type="github">
  <diagram id="Ht1M8jgEwFfnCIfOTk4-" name="Page-1">
    <mxGraphModel dx="1461" dy="1725" grid="1" gridSize="10" guides="1" tooltips="1" connect="1" arrows="1" fold="1" page="1" pageScale="1" pageWidth="1169" pageHeight="827" math="0" shadow="0">
      <root>
        <mxCell id="0" />
        <mxCell id="1" parent="0" />
        <mxCell id="wTppEB22wFtKvMYDl9zm-16" value="" style="rounded=0;whiteSpace=wrap;html=1;strokeWidth=2;strokeColor=#5a5edd;" vertex="1" parent="1">
          <mxGeometry x="520" y="-470" width="420" height="140" as="geometry" />
        </mxCell>
        <mxCell id="UEzPUAAOIrF-is8g5C7q-175" value="AWS Cloud" style="points=[[0,0],[0.25,0],[0.5,0],[0.75,0],[1,0],[1,0.25],[1,0.5],[1,0.75],[1,1],[0.75,1],[0.5,1],[0.25,1],[0,1],[0,0.75],[0,0.5],[0,0.25]];outlineConnect=0;gradientColor=none;html=1;whiteSpace=wrap;fontSize=12;fontStyle=0;shape=mxgraph.aws4.group;grIcon=mxgraph.aws4.group_aws_cloud_alt;strokeColor=#232F3E;fillColor=none;verticalAlign=top;align=left;spacingLeft=30;fontColor=#232F3E;dashed=0;labelBackgroundColor=#ffffff;container=1;pointerEvents=0;collapsible=0;recursiveResize=0;" parent="1" vertex="1">
          <mxGeometry x="260" y="-800" width="680" height="310" as="geometry" />
        </mxCell>
        <mxCell id="wTppEB22wFtKvMYDl9zm-9" value="AWS Step Functions workflow" style="points=[[0,0],[0.25,0],[0.5,0],[0.75,0],[1,0],[1,0.25],[1,0.5],[1,0.75],[1,1],[0.75,1],[0.5,1],[0.25,1],[0,1],[0,0.75],[0,0.5],[0,0.25]];outlineConnect=0;gradientColor=none;html=1;whiteSpace=wrap;fontSize=12;fontStyle=0;container=1;pointerEvents=0;collapsible=0;recursiveResize=0;shape=mxgraph.aws4.group;grIcon=mxgraph.aws4.group_aws_step_functions_workflow;strokeColor=#CD2264;fillColor=none;verticalAlign=top;align=left;spacingLeft=30;fontColor=#CD2264;dashed=0;" vertex="1" parent="UEzPUAAOIrF-is8g5C7q-175">
          <mxGeometry x="30" y="40" width="150" height="190" as="geometry" />
        </mxCell>
        <mxCell id="wTppEB22wFtKvMYDl9zm-7" value="Glue&lt;br&gt;EMR&lt;br&gt;Lambdas&lt;br&gt;(Pyspark)" style="rounded=1;whiteSpace=wrap;html=1;" vertex="1" parent="wTppEB22wFtKvMYDl9zm-9">
          <mxGeometry x="15" y="70" width="120" height="70" as="geometry" />
        </mxCell>
        <mxCell id="wTppEB22wFtKvMYDl9zm-10" value="Lake Formation" style="sketch=0;points=[[0,0,0],[0.25,0,0],[0.5,0,0],[0.75,0,0],[1,0,0],[0,1,0],[0.25,1,0],[0.5,1,0],[0.75,1,0],[1,1,0],[0,0.25,0],[0,0.5,0],[0,0.75,0],[1,0.25,0],[1,0.5,0],[1,0.75,0]];outlineConnect=0;fontColor=#232F3E;fillColor=#8C4FFF;strokeColor=#ffffff;dashed=0;verticalLabelPosition=bottom;verticalAlign=top;align=center;html=1;fontSize=12;fontStyle=0;aspect=fixed;shape=mxgraph.aws4.resourceIcon;resIcon=mxgraph.aws4.lake_formation;" vertex="1" parent="UEzPUAAOIrF-is8g5C7q-175">
          <mxGeometry x="230.5" y="220" width="49.5" height="49.5" as="geometry" />
        </mxCell>
        <mxCell id="wTppEB22wFtKvMYDl9zm-11" value="" style="rounded=0;whiteSpace=wrap;html=1;strokeWidth=2;strokeColor=#5a5edd;" vertex="1" parent="UEzPUAAOIrF-is8g5C7q-175">
          <mxGeometry x="260" y="40" width="360" height="180" as="geometry" />
        </mxCell>
        <mxCell id="wTppEB22wFtKvMYDl9zm-36" style="edgeStyle=orthogonalEdgeStyle;rounded=0;orthogonalLoop=1;jettySize=auto;html=1;" edge="1" parent="UEzPUAAOIrF-is8g5C7q-175" source="wTppEB22wFtKvMYDl9zm-9" target="wTppEB22wFtKvMYDl9zm-12">
          <mxGeometry relative="1" as="geometry" />
        </mxCell>
        <mxCell id="wTppEB22wFtKvMYDl9zm-34" style="edgeStyle=orthogonalEdgeStyle;rounded=0;orthogonalLoop=1;jettySize=auto;html=1;" edge="1" parent="UEzPUAAOIrF-is8g5C7q-175" source="wTppEB22wFtKvMYDl9zm-12" target="wTppEB22wFtKvMYDl9zm-13">
          <mxGeometry relative="1" as="geometry" />
        </mxCell>
        <mxCell id="wTppEB22wFtKvMYDl9zm-12" value="Data Store" style="sketch=0;outlineConnect=0;fontColor=#232F3E;gradientColor=none;fillColor=#7AA116;strokeColor=none;dashed=0;verticalLabelPosition=bottom;verticalAlign=top;align=center;html=1;fontSize=12;fontStyle=0;aspect=fixed;pointerEvents=1;shape=mxgraph.aws4.bucket_with_objects;" vertex="1" parent="UEzPUAAOIrF-is8g5C7q-175">
          <mxGeometry x="280" y="70" width="48.08" height="50" as="geometry" />
        </mxCell>
        <mxCell id="wTppEB22wFtKvMYDl9zm-35" style="edgeStyle=orthogonalEdgeStyle;rounded=0;orthogonalLoop=1;jettySize=auto;html=1;" edge="1" parent="UEzPUAAOIrF-is8g5C7q-175" source="wTppEB22wFtKvMYDl9zm-13" target="wTppEB22wFtKvMYDl9zm-14">
          <mxGeometry relative="1" as="geometry" />
        </mxCell>
        <mxCell id="wTppEB22wFtKvMYDl9zm-13" value="Glue Crawler" style="sketch=0;outlineConnect=0;fontColor=#232F3E;gradientColor=none;fillColor=#8C4FFF;strokeColor=none;dashed=0;verticalLabelPosition=bottom;verticalAlign=top;align=center;html=1;fontSize=12;fontStyle=0;aspect=fixed;pointerEvents=1;shape=mxgraph.aws4.glue_crawlers;" vertex="1" parent="UEzPUAAOIrF-is8g5C7q-175">
          <mxGeometry x="400" y="70" width="50" height="50" as="geometry" />
        </mxCell>
        <mxCell id="wTppEB22wFtKvMYDl9zm-14" value="Data Catalog" style="sketch=0;outlineConnect=0;fontColor=#232F3E;gradientColor=none;fillColor=#8C4FFF;strokeColor=none;dashed=0;verticalLabelPosition=bottom;verticalAlign=top;align=center;html=1;fontSize=12;fontStyle=0;aspect=fixed;pointerEvents=1;shape=mxgraph.aws4.glue_data_catalog;" vertex="1" parent="UEzPUAAOIrF-is8g5C7q-175">
          <mxGeometry x="510" y="58" width="68.31" height="74" as="geometry" />
        </mxCell>
        <mxCell id="wTppEB22wFtKvMYDl9zm-8" value="&lt;b style=&quot;border-color: var(--border-color);&quot;&gt;&lt;font style=&quot;border-color: var(--border-color); font-size: 14px;&quot;&gt;ETL&lt;/font&gt;&lt;/b&gt;" style="text;html=1;align=center;verticalAlign=middle;resizable=0;points=[];autosize=1;strokeColor=none;fillColor=none;" vertex="1" parent="UEzPUAAOIrF-is8g5C7q-175">
          <mxGeometry x="75" y="235" width="50" height="30" as="geometry" />
        </mxCell>
        <mxCell id="wTppEB22wFtKvMYDl9zm-1" value="" style="points=[[0,0],[0.25,0],[0.5,0],[0.75,0],[1,0],[1,0.25],[1,0.5],[1,0.75],[1,1],[0.75,1],[0.5,1],[0.25,1],[0,1],[0,0.75],[0,0.5],[0,0.25]];outlineConnect=0;gradientColor=none;html=1;whiteSpace=wrap;fontSize=12;fontStyle=0;shape=mxgraph.aws4.group;grIcon=mxgraph.aws4.group_aws_cloud_alt;strokeColor=#232F3E;fillColor=none;verticalAlign=top;align=left;spacingLeft=30;fontColor=#232F3E;dashed=0;labelBackgroundColor=#ffffff;container=1;pointerEvents=0;collapsible=0;recursiveResize=0;" vertex="1" parent="1">
          <mxGeometry x="60" y="-770" width="100" height="150" as="geometry" />
        </mxCell>
        <mxCell id="UEzPUAAOIrF-is8g5C7q-177" value="Amazon S3&lt;br&gt;Bucket&lt;br&gt;" style="outlineConnect=0;fontColor=#232F3E;gradientColor=none;fillColor=#277116;strokeColor=none;dashed=0;verticalLabelPosition=bottom;verticalAlign=top;align=center;html=1;fontSize=12;fontStyle=0;aspect=fixed;pointerEvents=1;shape=mxgraph.aws4.bucket;labelBackgroundColor=#ffffff;" parent="wTppEB22wFtKvMYDl9zm-1" vertex="1">
          <mxGeometry x="26.92" y="41" width="46.15" height="48" as="geometry" />
        </mxCell>
        <mxCell id="wTppEB22wFtKvMYDl9zm-2" value="" style="sketch=0;outlineConnect=0;fontColor=#232F3E;gradientColor=none;fillColor=#7AA116;strokeColor=none;dashed=0;verticalLabelPosition=bottom;verticalAlign=top;align=center;html=1;fontSize=12;fontStyle=0;aspect=fixed;pointerEvents=1;shape=mxgraph.aws4.file_system;" vertex="1" parent="1">
          <mxGeometry x="80" y="-600" width="45.95" height="43" as="geometry" />
        </mxCell>
        <mxCell id="wTppEB22wFtKvMYDl9zm-5" value="File Storage" style="text;html=1;align=center;verticalAlign=middle;resizable=0;points=[];autosize=1;strokeColor=none;fillColor=none;" vertex="1" parent="1">
          <mxGeometry x="57.97" y="-540" width="90" height="30" as="geometry" />
        </mxCell>
        <mxCell id="wTppEB22wFtKvMYDl9zm-32" style="edgeStyle=orthogonalEdgeStyle;rounded=0;orthogonalLoop=1;jettySize=auto;html=1;entryX=1;entryY=1;entryDx=0;entryDy=0;" edge="1" parent="1">
          <mxGeometry relative="1" as="geometry">
            <mxPoint x="851.4705882352941" y="-435.5" as="sourcePoint" />
            <mxPoint x="860" y="-580" as="targetPoint" />
            <Array as="points">
              <mxPoint x="860" y="-435" />
              <mxPoint x="860" y="-507" />
              <mxPoint x="861" y="-580" />
            </Array>
          </mxGeometry>
        </mxCell>
        <mxCell id="wTppEB22wFtKvMYDl9zm-15" value="SageMaker" style="sketch=0;points=[[0,0,0],[0.25,0,0],[0.5,0,0],[0.75,0,0],[1,0,0],[0,1,0],[0.25,1,0],[0.5,1,0],[0.75,1,0],[1,1,0],[0,0.25,0],[0,0.5,0],[0,0.75,0],[1,0.25,0],[1,0.5,0],[1,0.75,0]];outlineConnect=0;fontColor=#232F3E;fillColor=#01A88D;strokeColor=#ffffff;dashed=0;verticalLabelPosition=bottom;verticalAlign=top;align=center;html=1;fontSize=12;fontStyle=0;aspect=fixed;shape=mxgraph.aws4.resourceIcon;resIcon=mxgraph.aws4.sagemaker;" vertex="1" parent="1">
          <mxGeometry x="842" y="-435.5" width="59" height="59" as="geometry" />
        </mxCell>
        <mxCell id="wTppEB22wFtKvMYDl9zm-17" value="" style="rounded=1;arcSize=10;dashed=0;fillColor=none;gradientColor=none;strokeWidth=2;" vertex="1" parent="1">
          <mxGeometry x="30" y="-800" width="150" height="310" as="geometry" />
        </mxCell>
        <mxCell id="wTppEB22wFtKvMYDl9zm-18" value="" style="dashed=0;html=1;shape=mxgraph.aws3.corporate_data_center;fillColor=#7D7C7C;gradientColor=none;dashed=0;" vertex="1" parent="1">
          <mxGeometry x="20" y="-800" width="20" height="22" as="geometry" />
        </mxCell>
        <mxCell id="wTppEB22wFtKvMYDl9zm-21" value="&lt;b style=&quot;border-color: var(--border-color);&quot;&gt;&lt;font style=&quot;border-color: var(--border-color); font-size: 14px;&quot;&gt;Data Source&lt;/font&gt;&lt;/b&gt;" style="text;html=1;align=center;verticalAlign=middle;resizable=0;points=[];autosize=1;strokeColor=none;fillColor=none;" vertex="1" parent="1">
          <mxGeometry x="47.97000000000003" y="-485" width="110" height="30" as="geometry" />
        </mxCell>
        <mxCell id="wTppEB22wFtKvMYDl9zm-23" value="&lt;b style=&quot;border-color: var(--border-color);&quot;&gt;&lt;font style=&quot;border-color: var(--border-color); font-size: 18px;&quot;&gt;Customers&lt;/font&gt;&lt;/b&gt;" style="text;html=1;align=center;verticalAlign=middle;resizable=0;points=[];autosize=1;strokeColor=none;fillColor=none;" vertex="1" parent="1">
          <mxGeometry x="520" y="-330" width="120" height="40" as="geometry" />
        </mxCell>
        <mxCell id="wTppEB22wFtKvMYDl9zm-25" value="Athena" style="outlineConnect=0;dashed=0;verticalLabelPosition=bottom;verticalAlign=top;align=center;html=1;shape=mxgraph.aws3.athena;fillColor=#F58534;gradientColor=none;" vertex="1" parent="1">
          <mxGeometry x="550" y="-423.5" width="56.5" height="47" as="geometry" />
        </mxCell>
        <mxCell id="wTppEB22wFtKvMYDl9zm-26" value="Redshift" style="outlineConnect=0;dashed=0;verticalLabelPosition=bottom;verticalAlign=top;align=center;html=1;shape=mxgraph.aws3.redshift;fillColor=#2E73B8;gradientColor=none;" vertex="1" parent="1">
          <mxGeometry x="650" y="-429.5" width="50" height="53" as="geometry" />
        </mxCell>
        <mxCell id="wTppEB22wFtKvMYDl9zm-27" value="External S3" style="outlineConnect=0;dashed=0;verticalLabelPosition=bottom;verticalAlign=top;align=center;html=1;shape=mxgraph.aws3.s3;fillColor=#E05243;gradientColor=none;" vertex="1" parent="1">
          <mxGeometry x="750" y="-438" width="56.5" height="64" as="geometry" />
        </mxCell>
        <mxCell id="wTppEB22wFtKvMYDl9zm-29" style="edgeStyle=orthogonalEdgeStyle;rounded=0;orthogonalLoop=1;jettySize=auto;html=1;entryX=0.162;entryY=1.005;entryDx=0;entryDy=0;entryPerimeter=0;" edge="1" parent="1" source="wTppEB22wFtKvMYDl9zm-25" target="wTppEB22wFtKvMYDl9zm-11">
          <mxGeometry relative="1" as="geometry" />
        </mxCell>
        <mxCell id="wTppEB22wFtKvMYDl9zm-30" style="edgeStyle=orthogonalEdgeStyle;rounded=0;orthogonalLoop=1;jettySize=auto;html=1;entryX=0.43;entryY=1.011;entryDx=0;entryDy=0;entryPerimeter=0;" edge="1" parent="1" source="wTppEB22wFtKvMYDl9zm-26" target="wTppEB22wFtKvMYDl9zm-11">
          <mxGeometry relative="1" as="geometry" />
        </mxCell>
        <mxCell id="wTppEB22wFtKvMYDl9zm-31" style="edgeStyle=orthogonalEdgeStyle;rounded=0;orthogonalLoop=1;jettySize=auto;html=1;entryX=0.715;entryY=0.992;entryDx=0;entryDy=0;entryPerimeter=0;" edge="1" parent="1" source="wTppEB22wFtKvMYDl9zm-27" target="wTppEB22wFtKvMYDl9zm-11">
          <mxGeometry relative="1" as="geometry" />
        </mxCell>
        <mxCell id="wTppEB22wFtKvMYDl9zm-46" value="" style="endArrow=classic;html=1;rounded=0;entryX=0;entryY=0.5;entryDx=0;entryDy=0;" edge="1" parent="1" target="wTppEB22wFtKvMYDl9zm-9">
          <mxGeometry width="50" height="50" relative="1" as="geometry">
            <mxPoint x="180" y="-570" as="sourcePoint" />
            <mxPoint x="230" y="-620" as="targetPoint" />
          </mxGeometry>
        </mxCell>
        <mxCell id="wTppEB22wFtKvMYDl9zm-52" value="" style="endArrow=classic;html=1;rounded=0;exitX=1;exitY=0.25;exitDx=0;exitDy=0;entryX=0;entryY=0.5;entryDx=0;entryDy=0;" edge="1" parent="1" source="wTppEB22wFtKvMYDl9zm-17" target="wTppEB22wFtKvMYDl9zm-9">
          <mxGeometry width="50" height="50" relative="1" as="geometry">
            <mxPoint x="190" y="-560" as="sourcePoint" />
            <mxPoint x="300" y="-616" as="targetPoint" />
          </mxGeometry>
        </mxCell>
        <mxCell id="wTppEB22wFtKvMYDl9zm-53" value="&lt;b&gt;Data Target&lt;/b&gt;" style="text;html=1;align=center;verticalAlign=middle;resizable=0;points=[];autosize=1;strokeColor=none;fillColor=none;" vertex="1" parent="1">
          <mxGeometry x="674" y="-582" width="90" height="30" as="geometry" />
        </mxCell>
      </root>
    </mxGraphModel>
  </diagram>
</mxfile>
